<svg version="1" xmlns="http://www.w3.org/2000/svg" width="346.667" height="346.667" viewBox="0 0 260.000000 260.000000"><path d="M130.2 31c-13.1 4.4-18 12.6-19.7 32.8-.7 7.4-1.2 11.2-1.7 11.8-.2.1-2.5-3.9-5.1-9-6.3-12.1-11.2-18.4-17.1-22.1-4.5-2.7-5.7-3-13.5-3-12.9 0-20.3 4.5-17.1 10.4C57.6 55 61 56 70.4 56c7.2 0 8.7.3 12.3 2.7 3.4 2.2 4.9 4.2 8.2 11.5 2.2 4.8 3.8 8.8 3.6 8.8-.2 0-4-1.3-8.5-3-4.4-1.6-9.1-3.2-10.3-3.4-12.7-2.7-17.3-3.2-23.6-3-10.8.3-15.8 2.1-20.8 7-5.2 5.2-7.2 11.4-6.7 20.4 1.4 23.2 19.7 48.7 39.3 54.5l5.8 1.8-1.3 5.6c-.7 3.1-1.2 9.4-1.1 14.1.2 9.3 1.9 13.6 6.8 17.2 2.9 2.2 10.4 3.1 14.9 1.8l2.8-.8v6.6c-.1 10.2 3 17.2 11.1 25.2 11.1 10.9 27.4 17.2 44.1 17 13.9-.2 18.7-.2 24.3-.1 6.7.2 10.2-.5 15.5-3.1 6.2-2.9 9.6-7.8 9.5-13.7 0-3.7.5-5.4 2.6-8l2.7-3.3 1.7 2.6c2.6 4 11.8 12.5 16.5 15.3 2.3 1.4 6.3 3.1 8.8 3.9 4.3 1.3 4.6 1.2 6.9-1 4.8-4.8 4.1-15.2-2.1-27.9-1.3-2.8-2.4-5.5-2.4-6s2.5-3.6 5.5-6.8c8.6-9.4 9.4-15.8 2.5-19.4-8.6-4.5-20.9-.9-32.1 9.2l-3.9 3.6-2.5-2.7c-1.4-1.5-2.3-3.2-1.9-3.7 1.1-1.9-.7-7.8-3.3-10.9-1.4-1.7-4.8-4.2-7.4-5.6-4.1-2-4.9-2.9-4.9-5.2 0-4.4-2.5-12.3-6.1-19.5l-3.3-6.8 4.3-4.2c7.5-7.2 13.6-17.3 17.5-28.9 6.9-20.7 1.5-42.2-12.5-49.2-13.5-6.7-31-.2-50.8 19-4.2 4-7.7 7.1-7.9 7-.1-.2-.3-4.2-.3-8.9-.1-9.3 1.2-15 4.3-18.4 2-2.1 3.4-2.6 10.5-3.8 5.2-.8 7.9-2.2 10.1-4.9 6-7.6-5.2-12.2-18.6-7.6zm-3.3 131.4c.9 1.1.8 1.5-.5 2-3 1.1-4.2.7-3.7-1.4.6-2.3 2.6-2.6 4.2-.6zm-2.7 22.5c5.2 5.8 3.5 15.3-3.2 18-4.5 1.8-6.5 1.8-10.3-.1-6.2-3.1-8.4-10.6-4.8-16.2 2.8-4.3 5.9-5.7 11.1-5.2 3.4.3 5.1 1.1 7.2 3.5z"/></svg>